<svg width="20" height="14" viewBox="0 0 20 14" fill="none" xmlns="http://www.w3.org/2000/svg">
<g clip-path="url(#clip0_28220_1833)">
<rect width="20" height="14" rx="1" fill="#2B5597"/>
<path d="M9.95542 6.71713C9.92317 6.74929 9.89177 6.78144 9.86121 6.81359C9.85188 6.82315 9.84254 6.83315 9.83321 6.84357L9.81538 6.86313C9.80605 6.87356 9.79714 6.88442 9.78865 6.89572C9.77507 6.91136 9.76276 6.92831 9.75173 6.94655C9.74918 6.9509 9.74664 6.95481 9.74409 6.95829C9.74155 6.96263 9.739 6.96654 9.73645 6.97002C9.73391 6.97436 9.73136 6.97871 9.72882 6.98305C9.72712 6.98653 9.725 6.99044 9.72245 6.99478C9.71905 7.00174 9.71566 7.00869 9.71227 7.01564C9.70972 7.02086 9.7076 7.02564 9.7059 7.02998C9.7042 7.03433 9.7025 7.03867 9.70081 7.04302C9.69996 7.04823 9.69869 7.05301 9.69699 7.05736C9.69529 7.0617 9.69402 7.06648 9.69317 7.07169C9.69232 7.0743 9.6919 7.07691 9.6919 7.07951C9.69105 7.08212 9.6902 7.08473 9.68935 7.08734C9.68935 7.08994 9.68892 7.09255 9.68808 7.09516C9.68808 7.09776 9.68765 7.10037 9.6868 7.10298C9.6868 7.10559 9.6868 7.10819 9.6868 7.1108C9.6868 7.11341 9.68638 7.11601 9.68553 7.11862C9.68553 7.12123 9.68553 7.12384 9.68553 7.12644C9.68553 7.12905 9.68553 7.13166 9.68553 7.13426C9.68553 7.136 9.68553 7.13817 9.68553 7.14078C9.68553 7.14252 9.68553 7.14469 9.68553 7.1473C9.68638 7.14904 9.6868 7.15121 9.6868 7.15382C9.6868 7.15555 9.6868 7.15729 9.6868 7.15903C9.68765 7.16164 9.68808 7.16381 9.68808 7.16555C9.68892 7.16729 9.68935 7.16902 9.68935 7.17076C9.6902 7.17337 9.69062 7.17554 9.69062 7.17728C9.69147 7.17902 9.6919 7.18076 9.6919 7.18249C9.69274 7.18423 9.69359 7.18597 9.69444 7.18771C9.69529 7.18945 9.69571 7.19118 9.69571 7.19292C9.69656 7.19466 9.69741 7.1964 9.69826 7.19814C9.69911 7.19988 9.69996 7.20118 9.70081 7.20205C9.7025 7.20552 9.7042 7.209 9.7059 7.21248C9.70845 7.21508 9.71057 7.21769 9.71227 7.2203C9.71481 7.2229 9.71736 7.22551 9.7199 7.22812C9.72245 7.23073 9.72499 7.23333 9.72754 7.23594C9.72924 7.23768 9.73094 7.23898 9.73263 7.23985C9.73433 7.24072 9.73603 7.24202 9.73773 7.24376C9.73942 7.24463 9.74112 7.2455 9.74282 7.24637C9.74452 7.24811 9.74621 7.24941 9.74791 7.25028C9.74961 7.25028 9.75088 7.25071 9.75173 7.25158C9.75258 7.25245 9.75343 7.25289 9.75428 7.25289C9.75597 7.25375 9.75725 7.25419 9.75809 7.25419C9.75894 7.25506 9.76022 7.25549 9.76191 7.25549C9.76446 7.25723 9.76701 7.25853 9.76955 7.2594C9.7721 7.26027 9.77507 7.26114 9.77846 7.26201C9.78101 7.26288 9.78356 7.26375 9.7861 7.26462C9.7895 7.26549 9.79247 7.26636 9.79501 7.26722C9.8018 7.26896 9.80902 7.27027 9.81666 7.27113C9.82429 7.27244 9.83448 7.27374 9.84339 7.27374H9.89431L9.92614 7.27244L9.95542 7.27113V6.71713Z" fill="white"/>
<path fill-rule="evenodd" clip-rule="evenodd" d="M16.5168 2.02439C16.6314 2.027 16.7447 2.05307 16.8504 2.1C16.9548 2.14693 17.0503 2.21471 17.1305 2.29944C17.2107 2.38417 17.2743 2.48324 17.3176 2.59274C17.3609 2.70093 17.3825 2.81825 17.3825 2.93557V7.71434C17.3825 7.83296 17.3596 7.95158 17.3151 8.06238C17.2705 8.17318 17.2056 8.27356 17.1228 8.35829C17.0401 8.44302 16.9421 8.5095 16.8351 8.55512C16.7269 8.60205 16.6111 8.62551 16.4939 8.62551H14.3539V9.56145H15.1254V11.9743H11.4131V9.56145H12.0687V8.51471L12.0229 8.54209C11.9898 8.56468 11.9567 8.58684 11.9236 8.60857C11.8905 8.62942 11.857 8.64984 11.823 8.66983C11.7458 8.71589 11.6677 8.76064 11.5888 8.8041C11.548 8.82669 11.5069 8.84798 11.4653 8.86797C11.3728 8.9149 11.2781 8.95791 11.1814 8.99702C11.0935 9.03352 11.0044 9.0648 10.914 9.09348C10.8954 9.0987 10.8763 9.10391 10.8568 9.10912C10.8381 9.11521 10.819 9.12042 10.7995 9.12477C10.7799 9.12911 10.7604 9.13346 10.7409 9.1378C10.7214 9.14215 10.7019 9.14606 10.6823 9.14953C10.6654 9.15214 10.6484 9.15475 10.6314 9.15736C10.6136 9.15996 10.5958 9.16257 10.578 9.16518C10.561 9.16691 10.5436 9.16865 10.5258 9.17039C10.5088 9.17213 10.4914 9.17343 10.4736 9.1743C10.4396 9.17691 10.4052 9.17865 10.3704 9.17952C10.3365 9.17952 10.3021 9.17908 10.2673 9.17821C10.2334 9.17734 10.1994 9.1756 10.1655 9.173C10.1307 9.17039 10.0963 9.16735 10.0624 9.16387C10.0513 9.16213 10.0399 9.1604 10.028 9.15866C10.0114 9.15605 9.99616 9.15345 9.97961 9.14953V9.56276H10.6391V11.9743H6.9637V9.56276H7.62188V7.83948H5.64734V9.56276H6.30552V11.9756H2.63142V9.56276H3.2896V4.71881H2.63142V2.02439H6.30552V4.71881H5.64734V6.44209H7.62188V4.71881H6.9637V2.02439H10.6365V4.71881H9.97834V6.27654L9.99234 6.26871L10.0038 6.2622C10.0182 6.25177 10.0331 6.24177 10.0484 6.23222C10.0713 6.21788 10.0942 6.20354 10.1196 6.1905C10.1604 6.16704 10.202 6.14401 10.2444 6.12141C10.3068 6.08883 10.3704 6.05624 10.4354 6.02365C10.5219 5.98107 10.6094 5.93935 10.6976 5.89851C10.7978 5.84898 10.8988 5.80248 11.0006 5.75903C11.1033 5.71558 11.206 5.67343 11.3087 5.63259C11.397 5.59609 11.4852 5.56089 11.5735 5.527C11.6372 5.50267 11.7008 5.4792 11.7645 5.45661C11.8065 5.44227 11.8498 5.42793 11.8918 5.4149C11.9198 5.40621 11.9482 5.39752 11.9771 5.38883C11.9974 5.38274 12.0182 5.37753 12.0394 5.37318L12.0649 5.36667V5.62998L12.1146 5.61434L12.1973 5.58957L12.247 5.57393C12.2571 5.57002 12.2699 5.56611 12.2826 5.5622C12.2962 5.55785 12.3098 5.55394 12.3233 5.55046C12.3615 5.53917 12.3993 5.52874 12.4366 5.51918C12.4816 5.50788 12.527 5.49745 12.5729 5.4879C12.5881 5.48442 12.6038 5.48138 12.62 5.47877L12.6467 5.47486H12.6556C12.6645 5.47356 12.6734 5.47225 12.6823 5.47225C12.6857 5.47138 12.6891 5.47095 12.6925 5.47095C12.6951 5.47095 12.698 5.47095 12.7014 5.47095C12.7048 5.47095 12.7082 5.47095 12.7116 5.47095C12.715 5.47095 12.718 5.47138 12.7205 5.47225C12.7222 5.47225 12.7235 5.47225 12.7244 5.47225C12.7252 5.47225 12.7265 5.47225 12.7282 5.47225C12.729 5.47225 12.7299 5.47225 12.7307 5.47225C12.7324 5.47225 12.7337 5.47269 12.7345 5.47356C12.7362 5.47356 12.7379 5.47356 12.7396 5.47356C12.7413 5.47356 12.743 5.47399 12.7447 5.47486C12.7464 5.47486 12.7481 5.47529 12.7498 5.47616C12.7515 5.47616 12.7532 5.4766 12.7549 5.47747C12.7558 5.47747 12.7566 5.4779 12.7575 5.47877C12.7583 5.47877 12.7596 5.4792 12.7613 5.48007C12.7621 5.48007 12.763 5.48051 12.7638 5.48138C12.7647 5.48138 12.7659 5.48181 12.7676 5.48268C12.7685 5.48268 12.7693 5.48312 12.7702 5.48398C12.771 5.48398 12.7715 5.48442 12.7715 5.48529C12.7723 5.48616 12.7732 5.48659 12.774 5.48659C12.7749 5.48746 12.7757 5.4879 12.7766 5.4879C12.7774 5.48963 12.7783 5.49094 12.7791 5.49181C12.7799 5.49267 12.7812 5.49354 12.7829 5.49441C12.7838 5.49615 12.7842 5.49745 12.7842 5.49832C12.785 5.49919 12.7859 5.5005 12.7867 5.50223C12.7867 5.5031 12.7872 5.50354 12.788 5.50354C12.788 5.50441 12.788 5.50528 12.788 5.50614C12.788 5.50701 12.7884 5.50745 12.7893 5.50745C12.7893 5.50832 12.7893 5.50919 12.7893 5.51006C12.7893 5.51092 12.7893 5.51179 12.7893 5.51266C12.7893 5.51353 12.7893 5.5144 12.7893 5.51527C12.7893 5.51614 12.7893 5.51657 12.7893 5.51657C12.7893 5.51744 12.7893 5.51831 12.7893 5.51918C12.7893 5.52005 12.7893 5.52135 12.7893 5.52309C12.7893 5.52396 12.7893 5.52483 12.7893 5.5257C12.7893 5.52657 12.7889 5.52744 12.788 5.5283C12.788 5.52917 12.788 5.53004 12.788 5.53091C12.788 5.53178 12.7876 5.53308 12.7867 5.53482C12.7867 5.53569 12.7867 5.53656 12.7867 5.53743C12.7859 5.53917 12.7855 5.54047 12.7855 5.54134C12.7846 5.54221 12.7842 5.54351 12.7842 5.54525C12.7833 5.54612 12.7825 5.54742 12.7816 5.54916C12.7816 5.5509 12.7812 5.55264 12.7804 5.55438C12.7795 5.55524 12.7787 5.55655 12.7778 5.55829C12.777 5.55915 12.7761 5.56046 12.7753 5.5622C12.7744 5.56393 12.7736 5.56611 12.7727 5.56871C12.7719 5.57045 12.7706 5.57219 12.7689 5.57393C12.7681 5.57567 12.7672 5.57784 12.7664 5.58045C12.7647 5.58218 12.7634 5.58392 12.7626 5.58566C12.7562 5.59479 12.7498 5.60391 12.7422 5.61303C12.7282 5.63128 12.7154 5.64693 12.6989 5.66387C12.6823 5.68212 12.6683 5.69516 12.6492 5.71471C12.6297 5.7347 12.6094 5.75338 12.5881 5.77076C12.5754 5.78119 12.5652 5.78901 12.5487 5.80205C12.5321 5.81508 12.5156 5.82681 12.499 5.83855C12.4566 5.86809 12.4133 5.89634 12.3692 5.92328C12.3182 5.95456 12.2669 5.98498 12.2151 6.01452L12.0649 6.09925V5.63128L11.8154 5.72644C11.7543 5.74991 11.6932 5.77337 11.6321 5.79814C11.5412 5.8329 11.4509 5.86853 11.3609 5.90503C11.254 5.95022 11.147 5.99584 11.0401 6.0419C10.9696 6.07145 10.8996 6.10186 10.83 6.13315C10.7816 6.154 10.7337 6.17573 10.6862 6.19832C10.6548 6.2131 10.6238 6.2283 10.5932 6.24395C10.5092 6.2874 10.426 6.33389 10.3437 6.38343C10.2801 6.42079 10.2177 6.45947 10.1566 6.49944C10.126 6.51899 10.0993 6.53985 10.07 6.56201C10.0411 6.5846 10.0123 6.6072 9.98343 6.62979L9.97706 6.63631V6.27263L9.96561 6.28175L9.92996 6.30912C9.89941 6.33085 9.8697 6.35301 9.84085 6.3756C9.81538 6.39385 9.79119 6.41297 9.76828 6.43296C9.74451 6.45295 9.7216 6.4738 9.69953 6.49553C9.67832 6.51726 9.65752 6.53985 9.63715 6.56331C9.61678 6.58678 9.59769 6.61111 9.57986 6.63631C9.5561 6.6702 9.53361 6.7041 9.51239 6.73799C9.50645 6.74929 9.50009 6.76058 9.4933 6.77188C9.48735 6.78231 9.48141 6.79317 9.47547 6.80447C9.46953 6.81577 9.46401 6.82706 9.45892 6.83836C9.45298 6.84966 9.44746 6.86139 9.44237 6.87356C9.43558 6.88746 9.42922 6.90137 9.42328 6.91527C9.41818 6.93004 9.41267 6.94482 9.40673 6.95959C9.40163 6.97349 9.39654 6.98783 9.39145 7.00261C9.38721 7.01738 9.38296 7.03259 9.37872 7.04823C9.37532 7.0604 9.37235 7.073 9.36981 7.08603C9.36726 7.0982 9.36514 7.1108 9.36344 7.12384C9.36174 7.136 9.36047 7.1486 9.35962 7.16164C9.35877 7.17467 9.35877 7.18771 9.35962 7.20074C9.35877 7.20683 9.35877 7.21335 9.35962 7.2203C9.35962 7.22638 9.36005 7.23246 9.3609 7.23855C9.3609 7.2455 9.36132 7.25202 9.36217 7.2581C9.36302 7.26418 9.36387 7.27027 9.36471 7.27635C9.36641 7.28591 9.36853 7.29547 9.37108 7.30503C9.37363 7.31459 9.3766 7.32371 9.37999 7.3324C9.38423 7.34109 9.38848 7.34935 9.39272 7.35717C9.39781 7.36586 9.40333 7.37411 9.40927 7.38194C9.41436 7.38889 9.41988 7.39584 9.42582 7.40279C9.43176 7.40975 9.43813 7.4167 9.44492 7.42365C9.45086 7.4306 9.45723 7.43712 9.46402 7.4432C9.47081 7.44929 9.47802 7.45537 9.48566 7.46145C9.50178 7.47536 9.51918 7.48796 9.53785 7.49925C9.55568 7.51142 9.57435 7.52228 9.59387 7.53184C9.61254 7.5414 9.63206 7.55009 9.65243 7.55791C9.6728 7.56573 9.69359 7.57225 9.71481 7.57747L9.74154 7.58398C9.68044 7.65177 9.62103 7.72129 9.56331 7.79255C9.52682 7.83774 9.49202 7.88423 9.45892 7.93203C9.44534 7.95115 9.43176 7.9707 9.41818 7.99069C9.4046 8.01155 9.39187 8.0324 9.37999 8.05326C9.36726 8.07325 9.35495 8.0941 9.34307 8.11583C9.33204 8.13668 9.32101 8.15798 9.30997 8.1797C9.30658 8.18752 9.30276 8.19534 9.29852 8.20317C9.29512 8.21099 9.29215 8.21881 9.2896 8.22663C9.28621 8.23445 9.28324 8.24227 9.28069 8.25009C9.2773 8.25791 9.27433 8.26574 9.27178 8.27356C9.26584 8.29181 9.26075 8.31049 9.2565 8.32961C9.25226 8.34873 9.24887 8.36785 9.24632 8.38696C9.24377 8.40608 9.2425 8.4252 9.2425 8.44432C9.24165 8.46431 9.24165 8.48386 9.2425 8.50298C9.2442 8.52992 9.24759 8.55642 9.25268 8.5825C9.25863 8.60944 9.26584 8.63551 9.27433 8.66071C9.28281 8.68591 9.29342 8.71068 9.30615 8.73501C9.31804 8.75934 9.33162 8.78237 9.34689 8.8041C9.35538 8.81713 9.36429 8.82973 9.37363 8.8419C9.38381 8.85407 9.394 8.8658 9.40418 8.87709C9.41437 8.88839 9.42497 8.89969 9.43601 8.91099C9.44704 8.92141 9.4585 8.93141 9.47038 8.94097C9.49669 8.96356 9.52427 8.98398 9.55313 9.00223C9.58199 9.02048 9.61212 9.037 9.64352 9.05177C9.67407 9.06654 9.70547 9.07914 9.73773 9.08957C9.76998 9.1 9.80308 9.10826 9.83703 9.11434L9.91723 9.13519L9.93378 9.1378L9.95033 9.14171L9.97706 9.14953V8.85233L9.92741 8.83538L9.87522 8.81583C9.85909 8.80974 9.84339 8.80323 9.82811 8.79628C9.81963 8.7928 9.81072 8.78889 9.80138 8.78454L9.78101 8.77411C9.77592 8.77151 9.77337 8.77151 9.76573 8.76629C9.75682 8.76108 9.74791 8.75456 9.74154 8.75065C9.73518 8.74544 9.73009 8.74022 9.72372 8.73501C9.71948 8.73153 9.71566 8.72762 9.71226 8.72328C9.70802 8.7198 9.7042 8.71589 9.70081 8.71154C9.69656 8.7072 9.69317 8.70285 9.69062 8.69851C9.68723 8.69416 9.68383 8.68938 9.68044 8.68417C9.67789 8.68069 9.67577 8.67678 9.67407 8.67244C9.67153 8.66896 9.6694 8.66505 9.66771 8.66071C9.66516 8.65636 9.66304 8.65245 9.66134 8.64898C9.65964 8.64463 9.65795 8.64029 9.65625 8.63594C9.65243 8.62551 9.64861 8.61639 9.64606 8.60465C9.64225 8.59292 9.6397 8.57989 9.63715 8.56816C9.6363 8.56468 9.63546 8.5612 9.63461 8.55773C9.63461 8.55338 9.63418 8.54947 9.63333 8.546C9.63249 8.54252 9.63206 8.53904 9.63206 8.53557C9.63121 8.53209 9.63079 8.52818 9.63079 8.52384C9.62951 8.50689 9.62697 8.48994 9.62697 8.473C9.62697 8.46344 9.62739 8.45344 9.62824 8.44302C9.62824 8.43259 9.62867 8.42259 9.62951 8.41304C9.62951 8.40261 9.63036 8.39261 9.63206 8.38305C9.63291 8.37262 9.63418 8.36263 9.63588 8.35307C9.63843 8.33091 9.64224 8.30875 9.64734 8.2892C9.65158 8.26921 9.65667 8.24966 9.66261 8.23054C9.66431 8.22619 9.66601 8.22185 9.66771 8.2175C9.6694 8.21316 9.67068 8.20881 9.67153 8.20447C9.67322 8.20012 9.67492 8.19578 9.67662 8.19143C9.67832 8.18709 9.68001 8.18318 9.68171 8.1797C9.6885 8.16319 9.69614 8.14711 9.70463 8.13147C9.70802 8.12452 9.71184 8.11757 9.71608 8.11061C9.72033 8.10366 9.72415 8.09671 9.72754 8.08976C9.73178 8.08281 9.73603 8.07629 9.74027 8.0702C9.74536 8.06325 9.75003 8.05673 9.75428 8.05065C9.76191 8.03892 9.76955 8.02979 9.77974 8.01676C9.78992 8.00242 9.79883 7.99199 9.81156 7.97765C9.82345 7.96288 9.83575 7.94854 9.84848 7.93464C9.87564 7.90335 9.90407 7.87294 9.93378 7.84339L9.97706 7.79907V7.34413C9.9847 7.34413 9.99234 7.34153 9.99998 7.34153L10.0153 7.33892C10.0229 7.33805 10.0301 7.33675 10.0369 7.33501C10.0445 7.33327 10.0518 7.33153 10.0585 7.32979C10.0653 7.32806 10.0725 7.32588 10.0802 7.32328C10.087 7.32154 10.0942 7.3198 10.1018 7.31806C10.1205 7.31198 10.1396 7.30546 10.1591 7.29851C10.1863 7.28895 10.2134 7.27896 10.2406 7.26853C10.3221 7.23811 10.4035 7.20596 10.485 7.17207C10.586 7.13122 10.6874 7.08994 10.7893 7.04823L10.8224 7.03389L10.8975 7L10.9586 6.97263H10.9752C10.976 6.97263 10.9773 6.97263 10.979 6.97263C10.9798 6.97263 10.9811 6.97306 10.9828 6.97393C10.9836 6.97393 10.9849 6.97436 10.9866 6.97523C10.9875 6.9761 10.9887 6.97697 10.9904 6.97784L10.9942 6.98175C10.9942 6.98262 10.9947 6.98305 10.9955 6.98305C10.9955 6.98392 10.9959 6.98479 10.9968 6.98566C10.9968 6.98566 10.9968 6.98609 10.9968 6.98696C10.9976 6.98783 10.9981 6.98827 10.9981 6.98827C10.9989 6.98914 10.9993 6.99001 10.9993 6.99087C11.0002 6.99174 11.0006 6.99261 11.0006 6.99348C11.0006 6.99435 11.001 6.99522 11.0019 6.99609C11.0019 6.99696 11.0019 6.99783 11.0019 6.9987C11.0027 7.00043 11.0032 7.00174 11.0032 7.00261C11.004 7.00434 11.0044 7.00608 11.0044 7.00782C11.0044 7.00869 11.0049 7.00999 11.0057 7.01173C11.0057 7.0126 11.0057 7.0139 11.0057 7.01564C11.0066 7.01738 11.007 7.01955 11.007 7.02216C11.007 7.02477 11.0074 7.02694 11.0083 7.02868C11.0083 7.03128 11.0083 7.03346 11.0083 7.0352C11.0083 7.0378 11.0083 7.04041 11.0083 7.04302C11.0083 7.04649 11.0087 7.04997 11.0095 7.05344C11.0095 7.05692 11.0095 7.06083 11.0095 7.06518C11.0095 7.06865 11.0095 7.07213 11.0095 7.0756C11.0087 7.07995 11.0083 7.08386 11.0083 7.08734C11.0083 7.09255 11.0078 7.0982 11.007 7.10428C11.0061 7.1095 11.0057 7.11471 11.0057 7.11993C11.0049 7.12601 11.004 7.13166 11.0032 7.13687C11.0023 7.14209 11.0015 7.14773 11.0006 7.15382C10.9968 7.17598 10.9917 7.19944 10.9866 7.2216C10.9841 7.22942 10.9815 7.23855 10.979 7.24506C10.9773 7.25115 10.9752 7.2568 10.9726 7.26201L10.9662 7.27505L10.9459 7.28287L10.8147 7.3337C10.7536 7.35717 10.693 7.38194 10.6327 7.40801C10.5792 7.43147 10.527 7.45493 10.4748 7.4797C10.4341 7.49882 10.3938 7.51924 10.3539 7.54097C10.3221 7.55791 10.2915 7.57616 10.261 7.59441C10.2355 7.61005 10.2088 7.627 10.1833 7.64395C10.1595 7.65959 10.1362 7.6761 10.1133 7.69348L9.99871 7.77821L9.97834 7.79907V8.85363L10.1553 8.88361C10.1973 8.89013 10.2393 8.89534 10.2788 8.89925C10.3195 8.90317 10.359 8.90577 10.3997 8.90577C10.4091 8.90664 10.4184 8.90664 10.4277 8.90577C10.4371 8.90577 10.4468 8.90577 10.457 8.90577C10.4663 8.9049 10.4757 8.90447 10.485 8.90447C10.4944 8.9036 10.5037 8.90273 10.513 8.90186C10.5232 8.90099 10.5334 8.89969 10.5436 8.89795C10.5529 8.89708 10.5627 8.89578 10.5729 8.89404C10.5822 8.8923 10.592 8.89056 10.6021 8.88883C10.6115 8.88709 10.6212 8.88535 10.6314 8.88361C10.6747 8.87579 10.7154 8.86406 10.7626 8.84972C10.8084 8.83582 10.8542 8.82017 10.9 8.80279L11.0935 8.72849L11.2743 8.65028C11.3337 8.62334 11.3923 8.59466 11.45 8.56425C11.5171 8.52775 11.5828 8.48907 11.6473 8.44823C11.7271 8.39609 11.8052 8.34134 11.8816 8.28398L11.9872 8.20577L12.0649 8.14451V8.51471L12.0725 8.5095L12.233 8.38696C12.2796 8.3522 12.3255 8.31614 12.3704 8.27877C12.3823 8.26834 12.3942 8.25791 12.4061 8.24749C12.418 8.23706 12.4294 8.22663 12.4405 8.2162C12.4523 8.2049 12.4638 8.19361 12.4748 8.18231C12.4859 8.17188 12.4969 8.16058 12.5079 8.14842C12.519 8.13712 12.53 8.12539 12.541 8.11322C12.5521 8.10019 12.5623 8.08715 12.5716 8.07412C12.5818 8.06195 12.5915 8.04891 12.6009 8.03501C12.6102 8.02197 12.6195 8.0085 12.6289 7.9946L12.6569 7.95028L12.69 7.88119C12.6942 7.87163 12.6985 7.86207 12.7027 7.85251C12.707 7.84209 12.7112 7.83209 12.7154 7.82253C12.7197 7.8121 12.7235 7.80168 12.7269 7.79125C12.7303 7.78169 12.7333 7.77169 12.7358 7.76127C12.7409 7.74475 12.7452 7.72824 12.7485 7.71173C12.7519 7.69609 12.7549 7.67958 12.7575 7.6622C12.7592 7.64569 12.76 7.62917 12.76 7.61266C12.7609 7.59615 12.7609 7.57964 12.76 7.56313C12.7592 7.55096 12.7579 7.53923 12.7562 7.52793C12.7545 7.51577 12.7524 7.50403 12.7498 7.49274C12.7464 7.48144 12.743 7.47014 12.7396 7.45885C12.7354 7.44842 12.7311 7.43755 12.7269 7.42626C12.721 7.41409 12.7146 7.40279 12.7078 7.39236C12.7002 7.38107 12.6917 7.37064 12.6823 7.36108C12.673 7.35152 12.6633 7.34283 12.6531 7.33501C12.642 7.32719 12.631 7.32024 12.62 7.31415C12.614 7.31241 12.6085 7.31024 12.6034 7.30763C12.5983 7.3059 12.5932 7.30416 12.5881 7.30242C12.5822 7.30068 12.5767 7.29894 12.5716 7.29721C12.5656 7.29547 12.5601 7.29416 12.555 7.2933C12.5508 7.29156 12.5461 7.29069 12.541 7.29069C12.5368 7.28982 12.5321 7.28895 12.527 7.28808C12.5228 7.28721 12.5181 7.28678 12.513 7.28678C12.5088 7.28591 12.5041 7.28547 12.499 7.28547H12.4876C12.4799 7.28547 12.4723 7.28547 12.4647 7.28547C12.457 7.28547 12.4489 7.28591 12.4405 7.28678C12.4328 7.28678 12.4252 7.28721 12.4175 7.28808C12.4099 7.28895 12.4023 7.28982 12.3946 7.29069H12.3921C12.3709 7.2933 12.3497 7.29677 12.3284 7.30112C12.3081 7.30459 12.2873 7.30894 12.2661 7.31415C12.2457 7.31937 12.2253 7.32458 12.2049 7.32979C12.1837 7.33588 12.1634 7.3424 12.1438 7.34935C12.1171 7.35847 12.0916 7.3676 12.0675 7.37803V6.42123C12.0013 6.44991 11.9334 6.47858 11.8638 6.50726C11.7942 6.53507 11.7241 6.56158 11.6537 6.58678C11.6359 6.59373 11.6181 6.60025 11.6002 6.60633L11.5773 6.61415H11.5569L11.5366 6.59981C11.5357 6.59894 11.5349 6.59807 11.534 6.59721C11.5332 6.59634 11.5323 6.59547 11.5315 6.5946C11.5306 6.59286 11.5298 6.59156 11.5289 6.59069C11.5281 6.58982 11.5272 6.58852 11.5264 6.58678C11.5255 6.58591 11.5247 6.58461 11.5238 6.58287C11.523 6.582 11.5226 6.5807 11.5226 6.57896C11.5217 6.57722 11.5209 6.57591 11.52 6.57505C11.5192 6.57331 11.5188 6.57157 11.5188 6.56983C11.5179 6.56809 11.5171 6.56636 11.5162 6.56462C11.5154 6.56288 11.5149 6.56071 11.5149 6.5581C11.5141 6.55636 11.5132 6.55462 11.5124 6.55289C11.5124 6.55115 11.512 6.54898 11.5111 6.54637C11.5111 6.5455 11.5111 6.5442 11.5111 6.54246C11.5111 6.54159 11.5107 6.54028 11.5098 6.53855C11.5098 6.53768 11.5098 6.53637 11.5098 6.53464C11.5098 6.53377 11.5098 6.5329 11.5098 6.53203C11.5098 6.53029 11.5094 6.52855 11.5086 6.52682C11.5086 6.52508 11.5086 6.52334 11.5086 6.5216C11.5086 6.52073 11.5086 6.51943 11.5086 6.51769C11.5094 6.51595 11.5098 6.51421 11.5098 6.51248C11.5098 6.50596 11.5086 6.49944 11.5098 6.49162C11.5098 6.4838 11.5124 6.47467 11.5124 6.46555C11.5132 6.46033 11.5141 6.45512 11.5149 6.44991C11.5158 6.44382 11.5166 6.43817 11.5175 6.43296C11.5192 6.42775 11.5205 6.42253 11.5213 6.41732C11.523 6.4121 11.5247 6.40689 11.5264 6.40168C11.5272 6.39559 11.5289 6.38951 11.5315 6.38343C11.5332 6.37734 11.5349 6.37169 11.5366 6.36648C11.5391 6.3604 11.5412 6.35475 11.5429 6.34953C11.5455 6.34345 11.548 6.3378 11.5506 6.33259L11.5633 6.32607L11.5964 6.31434C11.6261 6.30391 11.6554 6.29305 11.6843 6.28175C11.7131 6.27045 11.7415 6.25872 11.7696 6.24655C11.8217 6.22439 11.8739 6.20093 11.9236 6.17616C11.9427 6.16573 11.9643 6.15531 11.9809 6.14618C11.9962 6.13749 12.0119 6.12837 12.028 6.11881L12.0611 6.10577H12.0687V6.41993C12.0798 6.41558 12.0908 6.4108 12.1018 6.40559C12.1129 6.40037 12.1239 6.39516 12.1349 6.38994C12.146 6.38473 12.1566 6.37908 12.1668 6.373C12.1778 6.36778 12.1884 6.36213 12.1986 6.35605C12.261 6.32216 12.3259 6.28436 12.3832 6.24786C12.4392 6.21136 12.4952 6.17486 12.5487 6.13054C12.6034 6.08752 12.6556 6.0419 12.7053 5.99367L12.7307 5.9676C12.76 5.93762 12.788 5.90503 12.816 5.87374C12.8304 5.8581 12.8445 5.84202 12.858 5.82551C12.8708 5.809 12.8835 5.79205 12.8962 5.77467C12.9081 5.75729 12.92 5.73991 12.9319 5.72253C12.9429 5.70428 12.9535 5.68603 12.9637 5.66778C12.9688 5.65822 12.9735 5.6491 12.9777 5.64041C12.9819 5.63085 12.9862 5.62129 12.9904 5.61173C12.9947 5.60217 12.9985 5.59261 13.0019 5.58305C13.0053 5.57349 13.0083 5.56393 13.0108 5.55438C13.0133 5.54742 13.0155 5.54091 13.0172 5.53482C13.0189 5.52787 13.0201 5.52092 13.021 5.51397C13.0227 5.50788 13.024 5.50137 13.0248 5.49441C13.0257 5.48746 13.0261 5.48051 13.0261 5.47356C13.0269 5.46921 13.0273 5.46443 13.0273 5.45922C13.0273 5.454 13.0273 5.44922 13.0273 5.44488C13.0273 5.43966 13.0269 5.43445 13.0261 5.42924C13.0261 5.42402 13.0257 5.41924 13.0248 5.4149C13.0231 5.40708 13.0214 5.39925 13.0197 5.39143C13.0172 5.38448 13.0142 5.37709 13.0108 5.36927C13.0083 5.36232 13.0049 5.35537 13.0006 5.34842C12.9964 5.34233 12.9917 5.33625 12.9866 5.33017C12.9824 5.32495 12.9781 5.32017 12.9739 5.31583C12.9696 5.31148 12.965 5.30757 12.9599 5.3041C12.9548 5.29975 12.9497 5.29584 12.9446 5.29236C12.9395 5.28889 12.9344 5.28585 12.9293 5.28324C12.9191 5.27803 12.9094 5.27325 12.9 5.2689C12.8899 5.26456 12.8792 5.26108 12.8682 5.25847C12.858 5.255 12.8478 5.25195 12.8377 5.24935C12.8266 5.24674 12.8156 5.245 12.8046 5.24413C12.7884 5.24153 12.7719 5.23979 12.7549 5.23892C12.7379 5.23805 12.721 5.23718 12.704 5.23631C12.687 5.23631 12.67 5.23631 12.6531 5.23631C12.6361 5.23718 12.6191 5.23848 12.6021 5.24022C12.5631 5.2437 12.5245 5.24848 12.4863 5.25456C12.457 5.25978 12.4277 5.26499 12.3997 5.27151C12.2877 5.29845 12.1774 5.33017 12.0687 5.36667V4.71881H11.4105V2.02439H16.513M12.0649 8.1432L12.0675 8.1419V8.1432L12.0649 8.14451V8.1432ZM12.0675 8.1419V7.72346L11.9452 7.77691L11.7657 7.85382L11.4704 8.01154L11.1954 8.16406L10.8797 8.35046L10.6505 8.48864L10.6314 8.50168L10.6034 8.51601H10.583L10.5703 8.50168L10.5627 8.48864V8.37132L10.5665 8.34916C10.5682 8.33613 10.5703 8.32309 10.5729 8.31006C10.5729 8.30745 10.5733 8.30484 10.5741 8.30223C10.575 8.3005 10.5758 8.29832 10.5767 8.29572C10.5767 8.29311 10.5771 8.2905 10.578 8.2879C10.5788 8.28529 10.5797 8.28312 10.5805 8.28138C10.5813 8.27877 10.5822 8.2766 10.583 8.27486C10.5839 8.27312 10.5847 8.27138 10.5856 8.26965C10.5864 8.26791 10.5873 8.26574 10.5881 8.26313C10.589 8.26139 10.5898 8.25965 10.5907 8.25791C10.5958 8.24879 10.6009 8.24097 10.6085 8.23054C10.6153 8.22011 10.6225 8.21012 10.6302 8.20056C10.6327 8.19708 10.6352 8.19404 10.6378 8.19143C10.6403 8.18796 10.6429 8.18492 10.6454 8.18231C10.648 8.17883 10.6505 8.17579 10.6531 8.17318C10.6556 8.17058 10.6586 8.16754 10.662 8.16406C10.6696 8.15624 10.6777 8.14842 10.6862 8.1406C10.6972 8.13104 10.7087 8.12148 10.7205 8.11192C10.7524 8.08585 10.7855 8.06108 10.8198 8.03762C10.8606 8.00807 10.9022 7.97939 10.9446 7.95158C11.0066 7.90813 11.0694 7.86598 11.133 7.82514C11.1797 7.79472 11.2268 7.76518 11.2743 7.7365C11.3117 7.7139 11.3494 7.69174 11.3876 7.67002C11.4436 7.63873 11.5009 7.61006 11.5582 7.58268C11.5896 7.56791 11.621 7.554 11.6524 7.54097C11.6944 7.52272 11.7415 7.50317 11.781 7.48752C11.8209 7.47101 11.8612 7.4545 11.902 7.43799L11.972 7.41061C11.9847 7.4054 11.9962 7.40149 12.0076 7.39758C12.0187 7.39323 12.0301 7.38932 12.042 7.38585C12.0479 7.38411 12.0539 7.38237 12.0598 7.38063L12.0675 7.37803V7.72346L12.0904 7.71564L12.1553 7.69609L12.2915 7.65959L12.3042 7.65698L12.3233 7.65438C12.3399 7.65177 12.3577 7.65047 12.3743 7.65047C12.3819 7.65047 12.4175 7.65047 12.4252 7.65047L12.4328 7.65177C12.4337 7.65177 12.4349 7.65177 12.4366 7.65177C12.4375 7.65177 12.4383 7.6522 12.4392 7.65307C12.44 7.65307 12.4409 7.65307 12.4417 7.65307C12.4434 7.65394 12.4447 7.65438 12.4456 7.65438C12.4464 7.65524 12.4473 7.65568 12.4481 7.65568C12.4489 7.65568 12.4498 7.65611 12.4506 7.65698C12.4506 7.65698 12.4511 7.65742 12.4519 7.65829C12.4528 7.65829 12.4536 7.65872 12.4545 7.65959C12.4553 7.65959 12.4562 7.66002 12.457 7.66089C12.457 7.66089 12.4574 7.66089 12.4583 7.66089C12.4591 7.66176 12.4596 7.6622 12.4596 7.6622C12.4604 7.66307 12.4613 7.6635 12.4621 7.6635C12.4638 7.66524 12.4651 7.66698 12.4659 7.66871C12.4668 7.66958 12.468 7.67089 12.4697 7.67263C12.4706 7.67436 12.4714 7.6761 12.4723 7.67784C12.4731 7.67958 12.4736 7.68175 12.4736 7.68436C12.4736 7.68523 12.474 7.6861 12.4748 7.68696C12.4748 7.68696 12.4748 7.6874 12.4748 7.68827C12.4748 7.68914 12.4748 7.69001 12.4748 7.69087C12.4748 7.69174 12.4748 7.69261 12.4748 7.69348C12.4748 7.69435 12.4748 7.69522 12.4748 7.69609C12.4748 7.69783 12.4748 7.69913 12.4748 7.7C12.4748 7.70087 12.4748 7.70174 12.4748 7.70261C12.4748 7.70348 12.4748 7.70434 12.4748 7.70521C12.4748 7.70695 12.4748 7.70826 12.4748 7.70912C12.4748 7.71086 12.4744 7.7126 12.4736 7.71434C12.4736 7.71521 12.4736 7.71651 12.4736 7.71825C12.4727 7.71912 12.4723 7.72042 12.4723 7.72216C12.4714 7.7239 12.471 7.72564 12.471 7.72737C12.4702 7.72911 12.4697 7.73085 12.4697 7.73259C12.4689 7.73433 12.468 7.73606 12.4672 7.7378C12.4663 7.73954 12.4659 7.74128 12.4659 7.74302C12.4642 7.74562 12.4625 7.74867 12.4608 7.75214C12.4591 7.75562 12.4579 7.75909 12.457 7.76257C12.4553 7.76605 12.4536 7.76909 12.4519 7.77169C12.4502 7.77517 12.4485 7.77821 12.4468 7.78082C12.443 7.78734 12.4392 7.79255 12.4354 7.80037C12.4303 7.80689 12.4277 7.8121 12.4201 7.82123C12.4125 7.83035 12.4086 7.83557 12.3972 7.8486C12.387 7.86033 12.3781 7.87076 12.3641 7.88249C12.3513 7.89553 12.3386 7.90857 12.3246 7.9216L12.2584 7.98287L12.0675 8.1419ZM15.1228 5.11899C15.1228 5.06555 15.1126 5.01471 15.0935 4.96518C15.0732 4.91695 15.0452 4.87263 15.0083 4.83613C14.9726 4.79832 14.9293 4.76964 14.8822 4.74879C14.8351 4.72924 14.7842 4.71881 14.732 4.71881H14.3513V7.62048H14.7333C14.7842 7.62048 14.8351 7.61006 14.8822 7.5892C14.9306 7.56965 14.9726 7.53966 15.0095 7.50316C15.0452 7.46536 15.0745 7.42104 15.0935 7.37281C15.1139 7.32458 15.1241 7.27244 15.1241 7.2203L15.1228 5.11899Z" fill="white"/>
<path fill-rule="evenodd" clip-rule="evenodd" d="M18.4112 13.3248H1.60278C1.48056 13.3248 1.3609 13.3 1.24887 13.2518C1.13683 13.2048 1.03499 13.1344 0.94842 13.0471C0.863124 12.9585 0.794378 12.8542 0.748547 12.7395C0.701443 12.6248 0.678528 12.5022 0.678528 12.3771L0.681074 1.62942C0.681074 1.50428 0.705262 1.38175 0.751093 1.26704C0.798197 1.15233 0.86567 1.04804 0.950966 0.959403C1.03753 0.872066 1.13938 0.802979 1.25141 0.754748C1.36344 0.706517 1.48311 0.68175 1.60405 0.68175L18.4099 0.675232C18.5308 0.675232 18.6518 0.699999 18.7638 0.746927C18.8759 0.795157 18.9777 0.864245 19.063 0.952886C19.1496 1.04022 19.217 1.14451 19.2641 1.25922C19.31 1.37393 19.3342 1.49776 19.3342 1.6216V12.3771C19.3342 12.5009 19.31 12.6235 19.2641 12.7382C19.217 12.8529 19.1496 12.9572 19.063 13.0458C18.9777 13.1331 18.8759 13.2035 18.7638 13.2505C18.6518 13.2987 18.5308 13.3235 18.4112 13.3248ZM1.60405 1.02979C1.52767 1.02979 1.45256 1.04544 1.38126 1.07542C1.30997 1.1054 1.24632 1.14972 1.19158 1.20577C1.13811 1.26052 1.09482 1.327 1.06554 1.3987C1.03626 1.47169 1.02098 1.54991 1.02098 1.62812L1.01844 12.3771C1.01844 12.4553 1.03372 12.5335 1.063 12.6052C1.09228 12.6782 1.13556 12.7447 1.18903 12.7994C1.24377 12.8555 1.30743 12.8998 1.37872 12.9298C1.45001 12.9598 1.52512 12.9754 1.60278 12.9754H18.4112C18.4876 12.9754 18.5627 12.9598 18.634 12.9298C18.7053 12.8998 18.7689 12.8555 18.8237 12.7994C18.8771 12.7434 18.9204 12.6782 18.9497 12.6052C18.979 12.5322 18.9942 12.4553 18.9942 12.3771V1.6229C18.9942 1.54469 18.979 1.46648 18.9497 1.39478C18.9204 1.32179 18.8784 1.25531 18.8237 1.20056C18.7689 1.14451 18.7053 1.10019 18.634 1.0702C18.5627 1.04022 18.4876 1.02458 18.4112 1.02458L1.60405 1.02979Z" fill="white"/>
</g>
<defs>
<clipPath id="clip0_28220_1833">
<rect width="20" height="14" rx="1" fill="white"/>
</clipPath>
</defs>
</svg>
